# 3ds Max Wavefront OBJ Exporter v0.97b - (c)2007 guruware
# File Created: 09.02.2014 00:14:57

#
# object Candlestick
#

v  0.3348 2.9222 -0.5133
v  0.2550 3.6186 -0.3751
v  0.4998 3.6186 0.0489
v  0.6594 2.9222 0.0489
v  -0.3144 2.9222 -0.5133
v  -0.2346 3.6186 -0.3751
v  -0.6389 2.9222 0.0489
v  -0.4794 3.6186 0.0489
v  -0.3144 2.9222 0.6110
v  -0.2346 3.6186 0.4728
v  0.3348 2.9222 0.6110
v  0.2550 3.6186 0.4728
v  0.2318 5.3121 -0.3350
v  0.4535 5.3121 0.0489
v  -0.2114 5.3121 -0.3350
v  -0.4330 5.3121 0.0489
v  -0.2114 5.3121 0.4327
v  0.2318 5.3121 0.4327
v  0.0102 5.0058 0.0489
v  -1.9759 0.0071 -0.0000
v  -1.3972 0.0071 1.3972
v  -1.9261 0.6616 1.9261
v  -2.7239 0.6616 -0.0000
v  0.0000 0.0071 1.9759
v  0.0000 0.6616 2.7239
v  1.3972 0.0071 1.3972
v  1.9261 0.6616 1.9261
v  1.9759 0.0071 -0.0000
v  2.7239 0.6616 -0.0000
v  -0.4856 0.1358 0.4856
v  -0.6868 0.1358 -0.0000
v  0.0000 0.1358 0.6868
v  0.4857 0.1358 0.4856
v  0.6868 0.1358 -0.0000
v  -0.2999 0.7751 0.2999
v  -0.4242 0.7751 -0.0000
v  0.0000 0.7751 0.4242
v  0.2999 0.7751 0.2999
v  0.4242 0.7751 -0.0000
v  -0.3380 1.7478 0.3380
v  -0.4781 1.7478 -0.0000
v  0.0000 1.7478 0.4781
v  0.3380 1.7478 0.3380
v  0.4781 1.7478 -0.0000
v  -0.9297 2.3016 -0.0000
v  -0.6574 2.3016 0.6574
v  -0.4924 2.7664 0.4924
v  -0.6963 2.7664 -0.0000
v  0.0000 2.3016 0.9297
v  0.0000 2.7664 0.6963
v  0.6574 2.3016 0.6574
v  0.4924 2.7664 0.4924
v  0.9297 2.3016 -0.0000
v  0.6963 2.7664 -0.0000
v  -1.0784 3.2175 1.0784
v  -1.5251 3.2175 -0.0000
v  0.0000 3.2175 1.5251
v  1.0784 3.2175 1.0784
v  1.5251 3.2175 -0.0000
v  -1.9261 0.6616 -1.9261
v  -1.3972 0.0071 -1.3972
v  0.0000 0.6616 -2.7239
v  0.0000 0.0071 -1.9759
v  1.9261 0.6616 -1.9261
v  1.3972 0.0071 -1.3972
v  -0.4856 0.1358 -0.4856
v  0.0000 0.1358 -0.6868
v  0.4857 0.1358 -0.4856
v  -0.2999 0.7751 -0.2999
v  0.0000 0.7751 -0.4242
v  0.2999 0.7751 -0.2999
v  -0.3380 1.7478 -0.3380
v  0.0000 1.7478 -0.4781
v  0.3380 1.7478 -0.3380
v  -0.4924 2.7664 -0.4924
v  -0.6574 2.3016 -0.6574
v  0.0000 2.7664 -0.6963
v  0.0000 2.3016 -0.9297
v  0.4924 2.7664 -0.4924
v  0.6574 2.3016 -0.6574
v  -1.0784 3.2175 -1.0784
v  0.0000 3.2175 -1.5251
v  1.0784 3.2175 -1.0784
v  0.0000 2.7373 -0.0000
# 84 vertices

vn 0.4874 0.2234 -0.8441
vn 0.4957 0.1301 -0.8587
vn 0.9915 0.1301 0.0000
vn 0.9747 0.2234 0.0000
vn -0.4874 0.2234 -0.8441
vn -0.4958 0.1301 -0.8587
vn -0.9747 0.2234 -0.0000
vn -0.9915 0.1301 -0.0000
vn -0.4874 0.2234 0.8441
vn -0.4958 0.1301 0.8587
vn 0.4874 0.2234 0.8441
vn 0.4958 0.1301 0.8587
vn 0.4998 0.0273 -0.8657
vn 0.9996 0.0273 -0.0000
vn -0.4998 0.0273 -0.8657
vn -0.9996 0.0273 -0.0000
vn -0.4998 0.0273 0.8657
vn 0.4998 0.0273 0.8657
vn -0.5686 0.8226 0.0000
vn -0.2843 0.8226 0.4924
vn 0.0000 1.0000 0.0000
vn 0.2843 0.8226 0.4924
vn 0.5686 0.8226 0.0000
vn 0.2843 0.8226 -0.4924
vn -0.2843 0.8226 -0.4924
vn -0.4237 -0.9058 0.0000
vn -0.2996 -0.9058 0.2996
vn -0.4657 -0.7525 0.4657
vn -0.6585 -0.7525 0.0000
vn 0.0000 -0.9058 0.4237
vn 0.0000 -0.7525 0.6585
vn 0.2996 -0.9058 0.2996
vn 0.4657 -0.7525 0.4657
vn 0.4237 -0.9058 0.0000
vn 0.6585 -0.7525 0.0000
vn 0.2499 0.9683 -0.0000
vn 0.1767 0.9683 -0.1767
vn 0.2499 0.9683 0.0000
vn -0.0000 0.9683 -0.2499
vn -0.1767 0.9683 -0.1767
vn -0.2499 0.9683 -0.0000
vn -0.2499 0.9683 0.0000
vn -0.9250 0.3800 -0.0000
vn -0.6541 0.3800 0.6541
vn -0.6961 0.1760 0.6961
vn -0.9844 0.1760 0.0000
vn 0.0000 0.3800 0.9250
vn 0.0000 0.1760 0.9844
vn 0.6541 0.3800 0.6541
vn 0.6961 0.1760 0.6961
vn 0.9250 0.3800 -0.0000
vn 0.9844 0.1760 -0.0000
vn -0.7060 -0.0553 0.7060
vn -0.9985 -0.0553 -0.0000
vn 0.0000 -0.0553 0.9985
vn 0.7060 -0.0553 0.7060
vn 0.9985 -0.0553 -0.0000
vn -0.9953 -0.0971 -0.0000
vn -0.7038 -0.0971 0.7038
vn -0.6319 0.4488 0.6319
vn -0.8937 0.4487 -0.0000
vn 0.0000 -0.0971 0.9953
vn 0.0000 0.4488 0.8937
vn 0.7038 -0.0971 0.7038
vn 0.6319 0.4488 0.6319
vn 0.9953 -0.0971 -0.0000
vn 0.8937 0.4488 -0.0000
vn -0.7749 -0.6321 -0.0000
vn -0.5479 -0.6321 0.5479
vn 0.0000 -0.6321 0.7749
vn 0.5479 -0.6321 0.5479
vn 0.7749 -0.6321 -0.0000
vn -0.4780 -0.8783 -0.0000
vn -0.3380 -0.8783 0.3380
vn 0.0000 -0.8783 0.4780
vn 0.3380 -0.8783 0.3380
vn 0.4780 -0.8783 -0.0000
vn 0.4780 -0.8783 0.0000
vn -0.4657 -0.7525 -0.4657
vn -0.2996 -0.9058 -0.2996
vn 0.0000 -0.7525 -0.6585
vn 0.0000 -0.9058 -0.4237
vn 0.4657 -0.7525 -0.4657
vn 0.2996 -0.9058 -0.2996
vn 0.1767 0.9683 0.1767
vn -0.0000 0.9683 0.2499
vn -0.1767 0.9683 0.1767
vn -0.6961 0.1760 -0.6961
vn -0.6541 0.3800 -0.6541
vn 0.0000 0.1760 -0.9844
vn 0.0000 0.3800 -0.9250
vn 0.6961 0.1760 -0.6961
vn 0.6541 0.3800 -0.6541
vn -0.7060 -0.0553 -0.7060
vn 0.0000 -0.0553 -0.9985
vn 0.7060 -0.0553 -0.7060
vn -0.6319 0.4488 -0.6319
vn -0.7038 -0.0971 -0.7038
vn 0.0000 0.4488 -0.8937
vn 0.0000 -0.0971 -0.9953
vn 0.6319 0.4488 -0.6319
vn 0.7038 -0.0971 -0.7038
vn -0.5479 -0.6321 -0.5479
vn 0.0000 -0.6321 -0.7749
vn 0.5479 -0.6321 -0.5479
vn -0.3380 -0.8783 -0.3380
vn 0.0000 -0.8783 -0.4780
vn 0.3380 -0.8783 -0.3380
vn 0.3003 0.9538 0.0000
vn 0.2124 0.9538 -0.2124
vn -0.0000 1.0000 0.0000
vn -0.0000 0.9538 -0.3003
vn -0.2124 0.9538 -0.2124
vn -0.3003 0.9538 0.0000
vn 0.2124 0.9538 0.2124
vn -0.0000 0.9538 0.3003
vn -0.2124 0.9538 0.2124
# 117 vertex normals

vt 0.4095 0.3801 0.5590
vt 0.4237 0.3801 0.3561
vt 0.4237 0.3815 0.3185
vt 0.4095 0.3815 0.5000
vt 0.4095 0.3783 0.5590
vt 0.4237 0.3783 0.3561
vt 0.4095 0.3762 0.5000
vt 0.4237 0.3762 0.3185
vt 0.4095 0.3740 0.5590
vt 0.4237 0.3740 0.3561
vt 0.4095 0.3722 0.5590
vt 0.4237 0.3722 0.3561
vt 0.4095 0.3711 0.5000
vt 0.4237 0.3711 0.3185
vt 0.4644 0.3801 0.3117
vt 0.4644 0.3815 0.2788
vt 0.4644 0.3782 0.3117
vt 0.4644 0.3760 0.2788
vt 0.4644 0.3737 0.3117
vt 0.4644 0.3719 0.3117
vt 0.4644 0.3711 0.2788
vt 0.4279 0.3747 0.0000
vt 0.4278 0.3753 0.0000
vt 0.4273 0.3749 0.0000
vt 0.4272 0.3755 0.0000
vt 0.4267 0.3752 0.0000
vt 0.4268 0.3745 0.0000
vt 0.4274 0.3743 0.0000
vt 0.4916 0.2522 0.0000
vt 0.4825 0.2317 0.0000
vt 0.4908 0.2187 0.0000
vt 0.5034 0.2469 0.0000
vt 0.4604 0.2233 0.0000
vt 0.4604 0.2071 0.0000
vt 0.4383 0.2317 0.0000
vt 0.4300 0.2187 0.0000
vt 0.4292 0.2522 0.0000
vt 0.4174 0.2469 0.0000
vt 0.4585 0.2219 0.0000
vt 0.4779 0.2300 0.0000
vt 0.4860 0.2495 0.0000
vt 0.4309 0.2495 0.0000
vt 0.4390 0.2300 0.0000
vt 0.2540 0.2527 0.0000
vt 0.2720 0.2092 0.0000
vt 0.3022 0.2440 0.0000
vt 0.2977 0.2550 0.0000
vt 0.3124 0.1914 0.0000
vt 0.3124 0.2395 0.0000
vt 0.3528 0.2092 0.0000
vt 0.3226 0.2440 0.0000
vt 0.3708 0.2527 0.0000
vt 0.3271 0.2550 0.0000
vt 0.2550 0.2166 0.0000
vt 0.2847 0.2065 0.0000
vt 0.2928 0.2559 0.0000
vt 0.2728 0.2559 0.0000
vt 0.3144 0.2043 0.0000
vt 0.3144 0.2559 0.0000
vt 0.3441 0.2065 0.0000
vt 0.3360 0.2559 0.0000
vt 0.3738 0.2166 0.0000
vt 0.3560 0.2559 0.0000
vt 0.2933 0.1938 0.0000
vt 0.2714 0.1930 0.0000
vt 0.3144 0.1947 0.0000
vt 0.3355 0.1938 0.0000
vt 0.3574 0.1930 0.0000
vt 0.2582 0.2439 0.0000
vt 0.2845 0.2439 0.0000
vt 0.2825 0.1945 0.0000
vt 0.2585 0.1945 0.0000
vt 0.3096 0.2439 0.0000
vt 0.3096 0.1945 0.0000
vt 0.3346 0.2439 0.0000
vt 0.3367 0.1945 0.0000
vt 0.3610 0.2439 0.0000
vt 0.3607 0.1945 0.0000
vt 0.2754 0.1945 0.0000
vt 0.2911 0.1945 0.0000
vt 0.3281 0.1945 0.0000
vt 0.3438 0.1945 0.0000
vt 0.2861 0.1906 0.0000
vt 0.2940 0.2093 0.0000
vt 0.2715 0.2374 0.0000
vt 0.2543 0.1965 0.0000
vt 0.3129 0.2171 0.0000
vt 0.3129 0.2544 0.0000
vt 0.3318 0.2093 0.0000
vt 0.3543 0.2374 0.0000
vt 0.3397 0.1906 0.0000
vt 0.3715 0.1965 0.0000
vt 0.3129 0.2244 0.0000
# 93 texture coords

g Candlestick
s 1073741824
f 1/1/1 2/2/2 3/3/3 4/4/4 
f 5/5/5 6/6/6 2/2/2 1/1/1 
f 7/7/7 8/8/8 6/6/6 5/5/5 
f 9/9/9 10/10/10 8/8/8 7/7/7 
f 11/11/11 12/12/12 10/10/10 9/9/9 
f 4/13/4 3/14/3 12/12/12 11/11/11 
f 13/15/13 14/16/14 3/3/3 2/2/2 
f 15/17/15 13/15/13 2/2/2 6/6/6 
f 16/18/16 15/17/15 6/6/6 8/8/8 
f 17/19/17 16/18/16 8/8/8 10/10/10 
f 18/20/18 17/19/17 10/10/10 12/12/12 
f 14/21/14 18/20/18 12/12/12 3/14/3 
s 4
f 14/22/19 13/23/20 19/24/21 
f 13/23/20 15/25/22 19/24/21 
f 15/25/22 16/26/23 19/24/21 
f 16/26/23 17/27/24 19/24/21 
f 17/27/24 18/28/25 19/24/21 
f 18/28/25 14/22/19 19/24/21 
s 1
f 20/29/26 21/30/27 22/31/28 23/32/29 
f 21/30/27 24/33/30 25/34/31 22/31/28 
f 24/33/30 26/35/32 27/36/33 25/34/31 
f 26/35/32 28/37/34 29/38/35 27/36/33 
f 24/39/30 21/40/27 20/41/26 28/42/34 
f 24/39/30 28/42/34 26/43/32 
s 2
f 23/44/36 22/45/37 30/46/37 31/47/38 
f 22/45/37 25/48/39 32/49/39 30/46/37 
f 25/48/39 27/50/40 33/51/40 32/49/39 
f 27/50/40 29/52/41 34/53/42 33/51/40 
s 1
f 31/54/43 30/55/44 35/56/45 36/57/46 
f 30/55/44 32/58/47 37/59/48 35/56/45 
f 32/58/47 33/60/49 38/61/50 37/59/48 
f 33/60/49 34/62/51 39/63/52 38/61/50 
f 35/56/45 40/64/53 41/65/54 36/57/46 
f 37/59/48 42/66/55 40/64/53 35/56/45 
f 38/61/50 43/67/56 42/66/55 37/59/48 
f 39/63/52 44/68/57 43/67/56 38/61/50 
s 268435456
f 45/69/58 46/70/59 47/71/60 48/72/61 
f 46/70/59 49/73/62 50/74/63 47/71/60 
f 49/73/62 51/75/64 52/76/65 50/74/63 
f 51/75/64 53/77/66 54/78/67 52/76/65 
f 46/70/59 45/69/58 41/79/68 40/80/69 
f 49/73/62 46/70/59 40/80/69 42/74/70 
f 51/75/64 49/73/62 42/74/70 43/81/71 
f 53/77/66 51/75/64 43/81/71 44/82/72 
s 1
f 48/83/73 47/84/74 55/85/74 56/86/73 
f 47/84/74 50/87/75 57/88/75 55/85/74 
f 50/87/75 52/89/76 58/90/76 57/88/75 
f 52/89/76 54/91/77 59/92/78 58/90/76 
f 20/29/26 23/32/29 60/31/79 61/30/80 
f 61/30/80 60/31/79 62/34/81 63/33/82 
f 63/33/82 62/34/81 64/36/83 65/35/84 
f 65/35/84 64/36/83 29/38/35 28/37/34 
f 63/39/82 65/43/84 28/42/34 20/41/26 
f 63/39/82 20/41/26 61/40/80 
s 2
f 23/44/36 31/47/38 66/46/85 60/45/85 
f 60/45/85 66/46/85 67/49/86 62/48/86 
f 62/48/86 67/49/86 68/51/87 64/50/87 
f 64/50/87 68/51/87 34/53/42 29/52/41 
s 1
f 31/54/43 36/57/46 69/56/88 66/55/89 
f 66/55/89 69/56/88 70/59/90 67/58/91 
f 67/58/91 70/59/90 71/61/92 68/60/93 
f 68/60/93 71/61/92 39/63/52 34/62/51 
f 69/56/88 36/57/46 41/65/54 72/64/94 
f 70/59/90 69/56/88 72/64/94 73/66/95 
f 71/61/92 70/59/90 73/66/95 74/67/96 
f 39/63/52 71/61/92 74/67/96 44/68/57 
s 268435456
f 45/69/58 48/72/61 75/71/97 76/70/98 
f 76/70/98 75/71/97 77/74/99 78/73/100 
f 78/73/100 77/74/99 79/76/101 80/75/102 
f 80/75/102 79/76/101 54/78/67 53/77/66 
f 76/70/98 72/80/103 41/79/68 45/69/58 
f 78/73/100 73/74/104 72/80/103 76/70/98 
f 80/75/102 74/81/105 73/74/104 78/73/100 
f 53/77/66 44/82/72 74/81/105 80/75/102 
s 1
f 48/83/73 56/86/73 81/85/106 75/84/106 
f 75/84/106 81/85/106 82/88/107 77/87/107 
f 77/87/107 82/88/107 83/90/108 79/89/108 
f 79/89/108 83/90/108 59/92/78 54/91/77 
s 2
f 56/86/109 55/85/110 84/93/111 
f 55/85/110 57/88/112 84/93/111 
f 57/88/112 58/90/113 84/93/111 
f 58/90/113 59/92/114 84/93/111 
f 81/85/115 56/86/109 84/93/111 
f 82/88/116 81/85/115 84/93/111 
f 83/90/117 82/88/116 84/93/111 
f 59/92/114 83/90/117 84/93/111 
# 70 polygons - 16 triangles

